# xmcd
#
# Track frame offsets:
#	150
#	16475
#	36703
#	55166
#	71242
#	89808
#	107603
#	125088
#	144782
#	164575
#	178947
#	196382
#
# Disc length: 2881 seconds
#
# Revision: 2
# Processed by: cddbd v1.5.1PL2 Copyright (c) Steve Scherf et al.
# Submitted via: audiograbber 1.83.01
#
DISCID=ba0b3f0c
DTITLE=Roger Whittaker - Ein Glück das es Dich gibt
DYEAR=1900
DGENRE=
TTITLE0=Eloisa
TTITLE1=Sein Truck Fährt weiter
TTITLE2=Von Dover nach Calais
TTITLE3=Saharaheiß - Alaskakühl
TTITLE4=Himmel vorhanden - Engel gesucht
TTITLE5=Abschied ist ein scharfes Schwert
TTITLE6=Augen wie zwei Sterne
TTITLE7=Ich denk oft an Mary
TTITLE8=Charlie Mahon
TTITLE9=Hin und her und her und hin
TTITLE10=Flasche und Glas
TTITLE11=Der himmel über mir
EXTD=
EXTT0=
EXTT1=
EXTT2=
EXTT3=
EXTT4=
EXTT5=
EXTT6=
EXTT7=
EXTT8=
EXTT9=
EXTT10=
EXTT11=
PLAYORDER=
